<svg width="159" height="77" viewBox="0 0 159 77" fill="none" xmlns="http://www.w3.org/2000/svg">
<g clip-path="url(#clip0_156_24734)">
<path d="M64.291 45.2085V10.82H90.2717V19.4815H74.0408V25.5599H85.7167V33.741H74.0408V45.2155H64.291V45.2085Z" fill="#0A286B"/>
<path d="M95.1436 45.2085V10.82H109.666C119.817 10.82 128.962 17.6364 128.962 27.9411C128.962 38.2459 119.768 45.2155 109.666 45.2155H95.1436V45.2085ZM104.943 36.7002H109.666C115.543 36.7002 119.114 32.4181 119.114 27.9899C119.114 23.5616 115.55 19.3283 109.666 19.3283H104.943V36.7002Z" fill="#0A286B"/>
<path d="M133.833 45.2085V10.82H143.583V36.7002H158.359V45.2085H133.84H133.833Z" fill="#0A286B"/>
<path d="M65.1699 61.9676H64.3193V54.8379H65.1699V61.9676Z" fill="#0A286B"/>
<path d="M71.6365 58.6604V61.9676H70.8V58.7578C70.8 57.9293 70.301 57.3514 69.4785 57.3514C68.6561 57.3514 68.0797 57.9362 68.0797 58.7578V61.9676H67.2432V56.7039H68.0305V57.2748C68.403 56.8431 68.9794 56.5855 69.6683 56.5855C70.9195 56.5855 71.6436 57.4419 71.6436 58.6604H71.6365Z" fill="#0A286B"/>
<path d="M76.5368 61.2644V61.9676C76.2626 62.0303 75.9885 62.086 75.6511 62.086C74.6037 62.086 73.8586 61.5777 73.8586 60.3801V57.4489H72.9658V56.7039H73.8586V55.2695H74.6951V56.7039H76.354V57.4489H74.6951V60.3244C74.6951 61.1112 75.152 61.3271 75.8198 61.3271C76.0236 61.3271 76.2556 61.3062 76.5297 61.2644H76.5368Z" fill="#0A286B"/>
<path d="M82.5957 59.5934H78.4062C78.5187 60.6447 79.299 61.3201 80.3463 61.3201C81.0141 61.3201 81.5343 61.0416 81.9701 60.6099L82.4622 61.1739C81.9279 61.7379 81.2109 62.093 80.3323 62.093C78.7296 62.093 77.5205 60.8954 77.5205 59.3497C77.5205 57.804 78.7085 56.5925 80.2339 56.5925C81.5976 56.5925 82.659 57.5672 82.659 58.9667C82.659 59.2452 82.6168 59.4959 82.5957 59.5934ZM78.4414 58.8553H81.8014C81.7874 57.8805 81.0704 57.3444 80.2198 57.3444C79.3271 57.3444 78.6171 57.9502 78.4414 58.8553Z" fill="#0A286B"/>
<path d="M87.1791 56.7039V57.4419H86.8628C85.9982 57.4419 85.1968 57.985 85.1968 58.9876V61.9676H84.3604V56.7039H85.1476V57.4628C85.5413 56.9475 86.1599 56.6621 86.7925 56.6621C86.9683 56.6621 87.0737 56.683 87.1862 56.7039H87.1791Z" fill="#0A286B"/>
<path d="M92.9149 58.6604V61.9676H92.0784V58.7578C92.0784 57.9293 91.5793 57.3514 90.7568 57.3514C89.9344 57.3514 89.358 57.9362 89.358 58.7578V61.9676H88.5215V56.7039H89.3088V57.2748C89.6813 56.8431 90.2578 56.5855 90.9466 56.5855C92.1979 56.5855 92.9219 57.4419 92.9219 58.6604H92.9149Z" fill="#0A286B"/>
<path d="M98.8973 58.723V61.9676H98.11V61.2853C97.7304 61.7936 97.1048 62.086 96.3245 62.086C95.256 62.086 94.4688 61.522 94.4688 60.6029C94.4688 59.6839 95.2209 59.1338 96.3807 59.1338H98.0608V58.6812C98.0608 57.797 97.5617 57.3514 96.7744 57.3514C96.1066 57.3514 95.6427 57.6647 95.2279 58.1939L94.6726 57.7413C95.1717 56.9406 95.9801 56.5855 96.8306 56.5855C98.0397 56.5855 98.9043 57.3096 98.9043 58.723H98.8973ZM98.0538 59.9485V59.8162H96.4721C95.727 59.8162 95.3263 60.0668 95.3263 60.5612C95.3263 61.1251 95.8395 61.3967 96.4299 61.3967C97.3016 61.3967 98.0538 60.77 98.0538 59.9485Z" fill="#0A286B"/>
<path d="M103.797 61.2644V61.9676C103.522 62.0303 103.248 62.086 102.911 62.086C101.863 62.086 101.118 61.5777 101.118 60.3801V57.4489H100.226V56.7039H101.118V55.2695H101.955V56.7039H103.614V57.4489H101.955V60.3244C101.955 61.1112 102.412 61.3271 103.08 61.3271C103.283 61.3271 103.515 61.3062 103.789 61.2644H103.797Z" fill="#0A286B"/>
<path d="M106.32 54.6986C106.32 55.0467 106.038 55.3044 105.701 55.3044C105.343 55.3044 105.068 55.0467 105.068 54.6986C105.068 54.3505 105.343 54.0929 105.701 54.0929C106.038 54.0929 106.32 54.3644 106.32 54.6986ZM106.109 61.9676H105.272V56.7039H106.109V61.9676Z" fill="#0A286B"/>
<path d="M113.356 59.3288C113.356 60.8606 112.112 62.0721 110.565 62.0721C109.026 62.0581 107.796 60.8745 107.796 59.3288C107.796 57.7831 109.019 56.5855 110.58 56.5855C112.14 56.5855 113.363 57.7831 113.363 59.3288H113.356ZM108.653 59.3427C108.653 60.4567 109.462 61.3062 110.565 61.3062C111.669 61.3062 112.499 60.4428 112.499 59.3427C112.499 58.2426 111.669 57.3514 110.58 57.3514C109.49 57.3514 108.646 58.2148 108.661 59.3427H108.653Z" fill="#0A286B"/>
<path d="M119.444 58.6604V61.9676H118.608V58.7578C118.608 57.9293 118.109 57.3514 117.286 57.3514C116.464 57.3514 115.887 57.9362 115.887 58.7578V61.9676H115.051V56.7039H115.838V57.2748C116.211 56.8431 116.787 56.5855 117.476 56.5855C118.727 56.5855 119.451 57.4419 119.451 58.6604H119.444Z" fill="#0A286B"/>
<path d="M125.419 58.723V61.9676H124.631V61.2853C124.252 61.7936 123.626 62.086 122.846 62.086C121.778 62.086 120.99 61.522 120.99 60.6029C120.99 59.6839 121.742 59.1338 122.902 59.1338H124.582V58.6812C124.582 57.797 124.083 57.3514 123.296 57.3514C122.628 57.3514 122.164 57.6647 121.749 58.1939L121.194 57.7413C121.693 56.9406 122.502 56.5855 123.352 56.5855C124.561 56.5855 125.426 57.3096 125.426 58.723H125.419ZM124.582 59.9485V59.8162H123.001C122.256 59.8162 121.855 60.0668 121.855 60.5612C121.855 61.1251 122.368 61.3967 122.958 61.3967C123.83 61.3967 124.582 60.77 124.582 59.9485Z" fill="#0A286B"/>
<path d="M128.258 61.9676H127.422V53.8631H128.258V61.9676Z" fill="#0A286B"/>
<path d="M65.1699 74.1801H68.5862V74.9391H64.3193V67.8093H65.1699V74.1871V74.1801Z" fill="#0A286B"/>
<path d="M75.1726 72.3002C75.1726 73.832 73.9284 75.0435 72.3819 75.0435C70.8425 75.0296 69.6123 73.8459 69.6123 72.3002C69.6123 70.7545 70.8354 69.5569 72.3959 69.5569C73.9565 69.5569 75.1796 70.7545 75.1796 72.3002H75.1726ZM70.4699 72.3141C70.4699 73.4282 71.2783 74.2776 72.3819 74.2776C73.4855 74.2776 74.315 73.4142 74.315 72.3141C74.315 71.214 73.4855 70.3228 72.3959 70.3228C71.3064 70.3228 70.4629 71.1862 70.4769 72.3141H70.4699Z" fill="#0A286B"/>
<path d="M81.9706 69.6753V74.4308C81.9706 76.0531 80.9373 77 79.3838 77C78.2732 77 77.4086 76.5056 76.8884 75.9834L77.3804 75.3986C77.8936 75.8442 78.4911 76.2271 79.3627 76.2271C80.4453 76.2271 81.1271 75.6353 81.1271 74.4656V73.9991C80.6913 74.5491 79.9462 74.8764 79.1519 74.8764C77.6546 74.8764 76.5439 73.7554 76.5439 72.2167C76.5439 70.6779 77.6546 69.55 79.1519 69.55C79.9884 69.55 80.7546 69.919 81.1693 70.5247V69.6683H81.9636L81.9706 69.6753ZM81.1412 72.2236C81.1412 70.9077 80.2063 70.3437 79.2854 70.3437C78.2029 70.3437 77.4015 71.1235 77.4015 72.2375C77.4015 73.3516 78.2099 74.1175 79.2854 74.1175C80.2133 74.1175 81.1412 73.5465 81.1412 72.2236Z" fill="#0A286B"/>
<path d="M85.0842 67.6631C85.0842 68.0112 84.8031 68.2688 84.4657 68.2688C84.1072 68.2688 83.833 68.0112 83.833 67.6631C83.833 67.3149 84.1072 67.0573 84.4657 67.0573C84.8031 67.0573 85.0842 67.3289 85.0842 67.6631ZM84.8734 74.9391H84.0369V69.6753H84.8734V74.9391Z" fill="#0A286B"/>
<path d="M90.3207 70.3855L89.8075 70.9077C89.456 70.5526 88.9991 70.3228 88.5 70.3228C88.001 70.3228 87.6143 70.5526 87.6143 70.9843C87.6143 71.3394 87.8885 71.5134 88.479 71.7502L88.971 71.9521C89.934 72.3489 90.3769 72.7597 90.3769 73.5047C90.3769 74.5283 89.4912 75.0505 88.5141 75.0505C87.537 75.0505 86.8692 74.584 86.4404 74.0269L86.9747 73.4769C87.4105 73.9295 87.8604 74.2846 88.5 74.2846C89.0554 74.2846 89.5123 74.013 89.5123 73.5396C89.5123 73.0661 89.1186 72.9129 88.5844 72.6971L88.0713 72.4812C87.2629 72.147 86.7497 71.778 86.7497 71.0191C86.7497 70.0652 87.5651 69.55 88.5352 69.55C89.3014 69.55 89.8989 69.8772 90.3136 70.3785L90.3207 70.3855Z" fill="#0A286B"/>
<path d="M95.0094 74.2358V74.9391C94.7353 75.0017 94.4611 75.0574 94.1237 75.0574C93.0763 75.0574 92.3312 74.5491 92.3312 73.3516V70.4203H91.4385V69.6753H92.3312V68.241H93.1677V69.6753H94.8266V70.4203H93.1677V73.2959C93.1677 74.0826 93.6246 74.2985 94.2924 74.2985C94.4963 74.2985 94.7282 74.2776 95.0024 74.2358H95.0094Z" fill="#0A286B"/>
<path d="M97.5335 67.6631C97.5335 68.0112 97.2523 68.2688 96.9149 68.2688C96.5564 68.2688 96.2822 68.0112 96.2822 67.6631C96.2822 67.3149 96.5564 67.0573 96.9149 67.0573C97.2523 67.0573 97.5335 67.3289 97.5335 67.6631ZM97.3296 74.9391H96.4931V69.6753H97.3296V74.9391Z" fill="#0A286B"/>
<path d="M103.979 70.6988L103.381 71.1723C102.988 70.657 102.489 70.3158 101.8 70.3158C100.689 70.3158 99.8666 71.1931 99.8666 72.2932C99.8666 73.3933 100.682 74.2846 101.8 74.2846C102.474 74.2846 102.981 73.9573 103.367 73.4421L103.965 73.9086C103.494 74.5979 102.735 75.0574 101.786 75.0574C100.239 75.0574 99.002 73.8459 99.002 72.3002C99.002 70.7545 100.232 69.5569 101.786 69.5569C102.749 69.5569 103.508 70.0095 103.979 70.7058V70.6988Z" fill="#0A286B"/>
<path d="M108.998 70.3855L108.485 70.9077C108.134 70.5526 107.677 70.3228 107.178 70.3228C106.679 70.3228 106.292 70.5526 106.292 70.9843C106.292 71.3394 106.566 71.5134 107.157 71.7502L107.649 71.9521C108.612 72.3489 109.055 72.7597 109.055 73.5047C109.055 74.5283 108.169 75.0505 107.192 75.0505C106.215 75.0505 105.547 74.584 105.118 74.0269L105.652 73.4769C106.088 73.9295 106.538 74.2846 107.178 74.2846C107.733 74.2846 108.19 74.013 108.19 73.5396C108.19 73.0661 107.796 72.9129 107.262 72.6971L106.749 72.4812C105.941 72.147 105.427 71.778 105.427 71.0191C105.427 70.0652 106.243 69.55 107.22 69.55C107.986 69.55 108.584 69.8772 108.998 70.3785V70.3855Z" fill="#0A286B"/>
<path d="M34.2617 51.3774L11.8027 25.6365L34.2617 0L53.7542 25.6365L34.2617 51.3774Z" fill="#00B8D4"/>
<path d="M48.5314 32.5226H17.8129L11.8027 25.6365H53.7542L48.5314 32.5226Z" fill="#008FC0"/>
<path d="M34.2613 0H23.914L0 25.5251L11.8024 25.6365L34.2613 0Z" fill="#0062AF"/>
<path d="M39.0691 17.8383H47.9894L42.6893 10.8687H39.0691C32.8059 10.8687 27.6745 15.7078 27.2527 21.807H27.2105V25.6365H20.3779L27.2035 32.5295V43.2938L34.261 51.3774V32.5226H40.5875L45.5502 25.6365H34.247V22.6077C34.247 19.9759 36.412 17.8314 39.0691 17.8314V17.8383Z" fill="white"/>
<path d="M0 25.5251L11.8024 25.6365L34.2613 51.3774H24.7927L0 25.5251Z" fill="#0A286B"/>
</g>
<defs>
<clipPath id="clip0_156_24734">
<rect width="158.358" height="77" fill="white"/>
</clipPath>
</defs>
</svg>
