<svg width="14" height="14" viewBox="0 0 14 14" fill="none" xmlns="http://www.w3.org/2000/svg">
<g id="icon-wrapper">
<path id="Union" fill-rule="evenodd" clip-rule="evenodd" d="M1.43993 4.06432C1.48057 4.02358 1.52885 3.99125 1.582 3.9692C1.63516 3.94714 1.69214 3.93579 1.74968 3.93579C1.80723 3.93579 1.86421 3.94714 1.91736 3.9692C1.97051 3.99125 2.01879 4.02358 2.05943 4.06432L6.99968 9.00545L11.9399 4.06432C11.9806 4.02365 12.0289 3.99138 12.082 3.96936C12.1352 3.94735 12.1922 3.93602 12.2497 3.93602C12.3072 3.93602 12.3642 3.94735 12.4173 3.96936C12.4705 3.99138 12.5188 4.02365 12.5594 4.06432C12.6001 4.105 12.6324 4.15329 12.6544 4.20644C12.6764 4.25958 12.6877 4.31655 12.6877 4.37407C12.6877 4.4316 12.6764 4.48856 12.6544 4.54171C12.6324 4.59486 12.6001 4.64315 12.5594 4.68382L7.30943 9.93382C7.26879 9.97457 7.22051 10.0069 7.16736 10.0289C7.11421 10.051 7.05723 10.0624 6.99968 10.0624C6.94214 10.0624 6.88516 10.051 6.832 10.0289C6.77885 10.0069 6.73057 9.97457 6.68993 9.93382L1.43993 4.68382C1.39919 4.64318 1.36687 4.5949 1.34481 4.54175C1.32275 4.4886 1.3114 4.43162 1.3114 4.37407C1.3114 4.31653 1.32275 4.25955 1.34481 4.20639C1.36687 4.15324 1.39919 4.10496 1.43993 4.06432Z" fill="#4DA9FF"/>
</g>
</svg>
