<svg width="1407" height="345" viewBox="0 0 1407 345" fill="none" xmlns="http://www.w3.org/2000/svg">
<g opacity="0.75">
<path d="M1407 66L1407 0L0 -4.64455e-05L-3.82018e-06 66L1407 66Z" fill="#00B8D4"/>
<path d="M1076 165L1076 103L2 103L2 165L1076 165Z" fill="#008FC0"/>
<path d="M1407 165L1407 103L1076 103L1076 165L1407 165Z" fill="#6ACFF6"/>
<path d="M1407 103L1407 66L2 66L2 103L1407 103Z" fill="#0062AF"/>
<path d="M1407 244L1407 165L2 165L2 244L1407 244Z" fill="#0062AF"/>
<path d="M490 345L490 290L0 290L-2.40413e-06 345L490 345Z" fill="#008FC0"/>
<path d="M1407 345L1407 290L423 290L423 345L1407 345Z" fill="#6ACFF6"/>
<path d="M1407 290L1407 244L2 244L2 290L1407 290Z" fill="#00B8D4"/>
</g>
</svg>
