<svg width="84" height="50" viewBox="0 0 84 50" fill="none" xmlns="http://www.w3.org/2000/svg">
<g clip-path="url(#clip0_253_686)">
<path fill-rule="evenodd" clip-rule="evenodd" d="M0 50H84V0H13.0998C5.89827 0 0 5.88788 0 13.0767V50Z" fill="#EE3032"/>
<path fill-rule="evenodd" clip-rule="evenodd" d="M12.3477 16.4431H31.7354V21.2714H25.0713V33.4898H19.1596V21.2714H12.3477V16.4431ZM56.5242 16.6041H62.1941V29.0907H71.6528V33.5032H56.5242V16.6041ZM43.3841 15.6518C49.0406 15.5848 52.1979 18.3879 53.1116 22.9211H47.8448C47.2939 20.963 45.8966 19.7827 43.4513 19.8229C40.2267 19.8632 38.7622 21.8616 38.7354 25.0402C38.6951 28.2055 40.5089 30.1234 43.5051 30.2039C45.91 30.2575 47.4686 28.9699 47.9657 26.8106H53.34C52.8429 31.5719 49.2287 34.4823 43.4916 34.375C37.0962 34.2409 33.2402 30.794 33.3208 25.067C33.388 19.3401 36.8947 15.7323 43.3976 15.6652" fill="white"/>
</g>
<defs>
<clipPath id="clip0_253_686">
<rect width="84" height="50" fill="white"/>
</clipPath>
</defs>
</svg>
