<svg width="116" height="126" viewBox="0 0 116 126" fill="none" xmlns="http://www.w3.org/2000/svg">
<rect x="0.782227" y="57.6035" width="81.4637" height="81.4637" transform="rotate(-45 0.782227 57.6035)" fill="white"/>
<path d="M66.2102 86.3329L41.3057 57.789L66.2102 29.3609L87.8253 57.789L66.2102 86.3329Z" fill="#00B8D4"/>
<path d="M82.0337 65.4249H47.9703L41.3057 57.789H87.8253L82.0337 65.4249Z" fill="#008FC0"/>
<path d="M66.2099 29.3609H54.7358L28.2178 57.6654L41.3053 57.789L66.2099 29.3609Z" fill="#0062AF"/>
<path d="M71.5419 49.1416H81.4336L75.5563 41.4131H71.5419C64.5967 41.4131 58.9065 46.7791 58.4388 53.5425H58.392V57.789H50.8154L58.3842 65.4326V77.369L66.2103 86.3328V65.4248H73.2256L78.7288 57.789H66.1947V54.4304C66.1947 51.5119 68.5955 49.1339 71.5419 49.1339V49.1416Z" fill="white"/>
<path d="M28.2178 57.6655L41.3053 57.789L66.2099 86.3329H55.7102L28.2178 57.6655Z" fill="#0A286B"/>
<circle cx="58.4778" cy="119.334" r="6.05199" fill="white"/>
</svg>
